<svg xmlns="http://www.w3.org/2000/svg" width="44" height="37" viewBox="0 0 44 37" fill="none">
<path d="M0.00161359 9.41779C0.00161359 4.21649 4.16866 0 9.30897 0H34.6927C39.833 0 44 4.21649 44 9.41779V27.3972C44 32.5985 39.833 36.815 34.6927 36.815H9.30897C4.16866 36.815 0.00161359 32.5985 0.00161359 27.3972V9.41779Z" fill="rgba(255, 255, 255, 0.3)" fill-opacity="0.3"/>
<path d="M16.123 25.3016C15.4629 25.3016 14.8303 25.1619 14.2252 24.8824C13.6338 24.603 13.1044 24.1768 12.6368 23.6039C12.183 23.0171 11.8185 22.2835 11.5435 21.4033C11.2822 20.509 11.1515 19.4611 11.1515 18.2595C11.1515 17.0299 11.2822 15.968 11.5435 15.0738C11.8048 14.1656 12.1623 13.418 12.6162 12.8312C13.07 12.2444 13.5994 11.8112 14.2046 11.5318C14.8097 11.2523 15.456 11.1126 16.1436 11.1126C16.79 11.1126 17.4089 11.2523 18.0002 11.5318C18.5916 11.8112 19.1142 12.2374 19.568 12.8102C20.0218 13.3831 20.3794 14.1097 20.6407 14.9899C20.9157 15.8702 21.0532 16.9042 21.0532 18.0918C21.0532 19.3354 20.9226 20.4112 20.6613 21.3194C20.4 22.2137 20.0493 22.9612 19.6092 23.562C19.1692 24.1489 18.6466 24.589 18.0415 24.8824C17.4364 25.1619 16.7969 25.3016 16.123 25.3016ZM16.0818 22.9961C16.7281 22.9961 17.237 22.5839 17.6083 21.7596C17.9933 20.9212 18.1859 19.7615 18.1859 18.2804C18.1859 16.7575 18.0002 15.5698 17.6289 14.7175C17.2576 13.8512 16.7419 13.418 16.0818 13.418C15.4354 13.418 14.9266 13.8442 14.5552 14.6965C14.1839 15.5349 13.9983 16.6946 13.9983 18.1757C13.9983 19.6986 14.1839 20.8863 14.5552 21.7386C14.9266 22.577 15.4354 22.9961 16.0818 22.9961Z" fill="white"/>
<path d="M29.0017 18.5529H32.7767V20.6488H29.0017V24.7147H26.7738V20.6488H23.0194V18.5529H26.7738V14.4869H29.0017V18.5529Z" fill="white"/>
</svg>
