<svg xmlns="http://www.w3.org/2000/svg" xmlns:xlink="http://www.w3.org/1999/xlink" width="1024" height="400">\n<path  d="M 0 0
L 1024 0
L 1024 400
L 0 400
L 0 0" style="stroke-width:0;stroke:rgba(255,255,255,1.0);fill:rgba(255,255,255,1.0)"/><path  d="M 15 11
L 964 11
L 964 373
L 15 373
L 15 11" style="stroke-width:0;stroke:rgba(255,255,255,1.0);fill:rgba(255,255,255,1.0)"/><path  d="M 15 373
L 964 373" style="stroke-width:1;stroke:rgba(51,51,51,1.0);fill:none"/><path  d="M 15 373
L 15 378" style="stroke-width:1;stroke:rgba(51,51,51,1.0);fill:none"/><path  d="M 134 373
L 134 378" style="stroke-width:1;stroke:rgba(51,51,51,1.0);fill:none"/><text x="37" y="395" style="stroke-width:0;stroke:none;fill:rgba(51,51,51,1.0);font-size:12.8px;font-family:'DejaVu Serif',sans-serif">2015-08-31</text><path  d="M 253 373
L 253 378" style="stroke-width:1;stroke:rgba(51,51,51,1.0);fill:none"/><text x="156" y="395" style="stroke-width:0;stroke:none;fill:rgba(51,51,51,1.0);font-size:12.8px;font-family:'DejaVu Serif',sans-serif">2015-10-15</text><path  d="M 371 373
L 371 378" style="stroke-width:1;stroke:rgba(51,51,51,1.0);fill:none"/><text x="275" y="395" style="stroke-width:0;stroke:none;fill:rgba(51,51,51,1.0);font-size:12.8px;font-family:'DejaVu Serif',sans-serif">2015-11-30</text><path  d="M 490 373
L 490 378" style="stroke-width:1;stroke:rgba(51,51,51,1.0);fill:none"/><text x="393" y="395" style="stroke-width:0;stroke:none;fill:rgba(51,51,51,1.0);font-size:12.8px;font-family:'DejaVu Serif',sans-serif">2016-01-14</text><path  d="M 609 373
L 609 378" style="stroke-width:1;stroke:rgba(51,51,51,1.0);fill:none"/><text x="512" y="395" style="stroke-width:0;stroke:none;fill:rgba(51,51,51,1.0);font-size:12.8px;font-family:'DejaVu Serif',sans-serif">2016-02-29</text><path  d="M 727 373
L 727 378" style="stroke-width:1;stroke:rgba(51,51,51,1.0);fill:none"/><text x="631" y="395" style="stroke-width:0;stroke:none;fill:rgba(51,51,51,1.0);font-size:12.8px;font-family:'DejaVu Serif',sans-serif">2016-04-14</text><path  d="M 846 373
L 846 378" style="stroke-width:1;stroke:rgba(51,51,51,1.0);fill:none"/><text x="749" y="395" style="stroke-width:0;stroke:none;fill:rgba(51,51,51,1.0);font-size:12.8px;font-family:'DejaVu Serif',sans-serif">2016-05-30</text><path  d="M 964 373
L 964 378" style="stroke-width:1;stroke:rgba(51,51,51,1.0);fill:none"/><text x="868" y="395" style="stroke-width:0;stroke:none;fill:rgba(51,51,51,1.0);font-size:12.8px;font-family:'DejaVu Serif',sans-serif">2016-07-14</text><path  d="M 134 373
L 134 11" style="stroke-width:0;stroke:none;fill:none"/><path  d="M 253 373
L 253 11" style="stroke-width:0;stroke:none;fill:none"/><path  d="M 371 373
L 371 11" style="stroke-width:0;stroke:none;fill:none"/><path  d="M 490 373
L 490 11" style="stroke-width:0;stroke:none;fill:none"/><path  d="M 609 373
L 609 11" style="stroke-width:0;stroke:none;fill:none"/><path  d="M 727 373
L 727 11" style="stroke-width:0;stroke:none;fill:none"/><path  d="M 846 373
L 846 11" style="stroke-width:0;stroke:none;fill:none"/><path  d="M 965 373
L 965 11" style="stroke-width:1;stroke:rgba(51,51,51,1.0);fill:none"/><path  d="M 965 373
L 970 373" style="stroke-width:1;stroke:rgba(51,51,51,1.0);fill:none"/><text x="975" y="379" style="stroke-width:0;stroke:none;fill:rgba(51,51,51,1.0);font-size:12.8px;font-family:'DejaVu Serif',sans-serif">180.00</text><path  d="M 965 332
L 970 332" style="stroke-width:1;stroke:rgba(51,51,51,1.0);fill:none"/><text x="975" y="338" style="stroke-width:0;stroke:none;fill:rgba(51,51,51,1.0);font-size:12.8px;font-family:'DejaVu Serif',sans-serif">184.50</text><path  d="M 965 292
L 970 292" style="stroke-width:1;stroke:rgba(51,51,51,1.0);fill:none"/><text x="975" y="298" style="stroke-width:0;stroke:none;fill:rgba(51,51,51,1.0);font-size:12.8px;font-family:'DejaVu Serif',sans-serif">188.90</text><path  d="M 965 251
L 970 251" style="stroke-width:1;stroke:rgba(51,51,51,1.0);fill:none"/><text x="975" y="257" style="stroke-width:0;stroke:none;fill:rgba(51,51,51,1.0);font-size:12.8px;font-family:'DejaVu Serif',sans-serif">193.40</text><path  d="M 965 211
L 970 211" style="stroke-width:1;stroke:rgba(51,51,51,1.0);fill:none"/><text x="975" y="217" style="stroke-width:0;stroke:none;fill:rgba(51,51,51,1.0);font-size:12.8px;font-family:'DejaVu Serif',sans-serif">197.80</text><path  d="M 965 171
L 970 171" style="stroke-width:1;stroke:rgba(51,51,51,1.0);fill:none"/><text x="975" y="177" style="stroke-width:0;stroke:none;fill:rgba(51,51,51,1.0);font-size:12.8px;font-family:'DejaVu Serif',sans-serif">202.30</text><path  d="M 965 131
L 970 131" style="stroke-width:1;stroke:rgba(51,51,51,1.0);fill:none"/><text x="975" y="137" style="stroke-width:0;stroke:none;fill:rgba(51,51,51,1.0);font-size:12.8px;font-family:'DejaVu Serif',sans-serif">206.70</text><path  d="M 965 90
L 970 90" style="stroke-width:1;stroke:rgba(51,51,51,1.0);fill:none"/><text x="975" y="96" style="stroke-width:0;stroke:none;fill:rgba(51,51,51,1.0);font-size:12.8px;font-family:'DejaVu Serif',sans-serif">211.20</text><path  d="M 965 50
L 970 50" style="stroke-width:1;stroke:rgba(51,51,51,1.0);fill:none"/><text x="975" y="56" style="stroke-width:0;stroke:none;fill:rgba(51,51,51,1.0);font-size:12.8px;font-family:'DejaVu Serif',sans-serif">215.60</text><path  d="M 965 11
L 970 11" style="stroke-width:1;stroke:rgba(51,51,51,1.0);fill:none"/><text x="975" y="17" style="stroke-width:0;stroke:none;fill:rgba(51,51,51,1.0);font-size:12.8px;font-family:'DejaVu Serif',sans-serif">220.00</text><path  d="M 15 2002
L 964 2002" style="stroke-width:0;stroke:none;fill:none"/><path  d="M 15 332
L 964 332" style="stroke-width:0;stroke:none;fill:none"/><path  d="M 15 292
L 964 292" style="stroke-width:0;stroke:none;fill:none"/><path  d="M 15 251
L 964 251" style="stroke-width:0;stroke:none;fill:none"/><path  d="M 15 211
L 964 211" style="stroke-width:0;stroke:none;fill:none"/><path  d="M 15 171
L 964 171" style="stroke-width:0;stroke:none;fill:none"/><path  d="M 15 131
L 964 131" style="stroke-width:0;stroke:none;fill:none"/><path  d="M 15 90
L 964 90" style="stroke-width:0;stroke:none;fill:none"/><path  d="M 15 50
L 964 50" style="stroke-width:0;stroke:none;fill:none"/><path  d="M 14 373
L 14 11" style="stroke-width:1;stroke:rgba(51,51,51,1.0);fill:none"/><path  d="M 14 -9223372036854775435
L 9 -9223372036854775435" style="stroke-width:1;stroke:rgba(51,51,51,1.0);fill:none"/><text x="-22" y="-9223372036854775429" style="stroke-width:0;stroke:none;fill:rgba(51,51,51,1.0);font-size:12.8px;font-family:'Roboto Medium',sans-serif">0.00</text><path  d="M 14 -9223372036854775435
L 9 -9223372036854775435" style="stroke-width:1;stroke:rgba(51,51,51,1.0);fill:none"/><text x="-22" y="-9223372036854775429" style="stroke-width:0;stroke:none;fill:rgba(51,51,51,1.0);font-size:12.8px;font-family:'Roboto Medium',sans-serif">0.00</text><path  d="M 14 -9223372036854775435
L 9 -9223372036854775435" style="stroke-width:1;stroke:rgba(51,51,51,1.0);fill:none"/><text x="-22" y="-9223372036854775429" style="stroke-width:0;stroke:none;fill:rgba(51,51,51,1.0);font-size:12.8px;font-family:'Roboto Medium',sans-serif">0.00</text><path  d="M 14 -9223372036854775435
L 9 -9223372036854775435" style="stroke-width:1;stroke:rgba(51,51,51,1.0);fill:none"/><text x="-22" y="-9223372036854775429" style="stroke-width:0;stroke:none;fill:rgba(51,51,51,1.0);font-size:12.8px;font-family:'Roboto Medium',sans-serif">0.00</text><path  d="M 14 -9223372036854775435
L 9 -9223372036854775435" style="stroke-width:1;stroke:rgba(51,51,51,1.0);fill:none"/><text x="-22" y="-9223372036854775429" style="stroke-width:0;stroke:none;fill:rgba(51,51,51,1.0);font-size:12.8px;font-family:'Roboto Medium',sans-serif">0.00</text><path  d="M 14 -9223372036854775435
L 9 -9223372036854775435" style="stroke-width:1;stroke:rgba(51,51,51,1.0);fill:none"/><text x="-22" y="-9223372036854775429" style="stroke-width:0;stroke:none;fill:rgba(51,51,51,1.0);font-size:12.8px;font-family:'Roboto Medium',sans-serif">0.00</text><path  d="M 14 -9223372036854775435
L 9 -9223372036854775435" style="stroke-width:1;stroke:rgba(51,51,51,1.0);fill:none"/><text x="-22" y="-9223372036854775429" style="stroke-width:0;stroke:none;fill:rgba(51,51,51,1.0);font-size:12.8px;font-family:'Roboto Medium',sans-serif">0.00</text><path  d="M 14 -9223372036854775435
L 9 -9223372036854775435" style="stroke-width:1;stroke:rgba(51,51,51,1.0);fill:none"/><text x="-22" y="-9223372036854775429" style="stroke-width:0;stroke:none;fill:rgba(51,51,51,1.0);font-size:12.8px;font-family:'Roboto Medium',sans-serif">0.00</text><path  d="M 14 -9223372036854775435
L 9 -9223372036854775435" style="stroke-width:1;stroke:rgba(51,51,51,1.0);fill:none"/><text x="-22" y="-9223372036854775429" style="stroke-width:0;stroke:none;fill:rgba(51,51,51,1.0);font-size:12.8px;font-family:'Roboto Medium',sans-serif">0.00</text><path  d="M 14 -9223372036854775435
L 9 -9223372036854775435" style="stroke-width:1;stroke:rgba(51,51,51,1.0);fill:none"/><text x="-22" y="-9223372036854775429" style="stroke-width:0;stroke:none;fill:rgba(51,51,51,1.0);font-size:12.8px;font-family:'Roboto Medium',sans-serif">0.00</text><path  d="M 15 -9223372036854775435
L 964 -9223372036854775435" style="stroke-width:0;stroke:none;fill:none"/><path  d="M 15 -9223372036854775435
L 964 -9223372036854775435" style="stroke-width:0;stroke:none;fill:none"/><path  d="M 15 -9223372036854775435
L 964 -9223372036854775435" style="stroke-width:0;stroke:none;fill:none"/><path  d="M 15 -9223372036854775435
L 964 -9223372036854775435" style="stroke-width:0;stroke:none;fill:none"/><path  d="M 15 -9223372036854775435
L 964 -9223372036854775435" style="stroke-width:0;stroke:none;fill:none"/><path  d="M 15 -9223372036854775435
L 964 -9223372036854775435" style="stroke-width:0;stroke:none;fill:none"/><path  d="M 15 -9223372036854775435
L 964 -9223372036854775435" style="stroke-width:0;stroke:none;fill:none"/><path  d="M 15 -9223372036854775435
L 964 -9223372036854775435" style="stroke-width:0;stroke:none;fill:none"/><path  d="M 15 -9223372036854775435
L 964 -9223372036854775435" style="stroke-width:0;stroke:none;fill:none"/><path  d="M 15 79
M 23 77
M 26 74
M 29 73
M 31 70
M 34 63
M 42 59
M 44 62
M 47 64
M 49 65
M 52 66
M 60 68
M 62 69
M 65 71
M 68 71
M 70 72
M 78 75
L 81 80
L 83 84
L 86 87
L 88 88
L 96 86
L 99 88
L 102 88
L 104 80
L 107 60
L 115 29
L 117 11
L 120 12
L 122 19
L 125 24
L 133 29
L 135 37
L 138 46
L 141 58
L 143 70
L 154 86
L 156 109
L 159 135
L 161 161
L 169 177
L 172 176
L 175 172
L 177 179
L 180 179
L 188 183
L 190 186
L 193 188
L 195 189
L 198 189
L 206 181
L 208 175
L 211 178
L 214 179
L 216 179
L 224 177
L 227 174
L 229 172
L 232 170
L 234 166
L 242 157
L 245 152
L 248 148
L 250 139
L 253 130
L 261 122
L 263 123
L 266 131
L 268 130
L 271 127
L 279 123
L 281 118
L 284 110
L 287 102
L 289 97
L 297 88
L 300 79
L 302 75
L 305 75
L 307 73
L 315 74
L 318 75
L 321 78
L 323 84
L 326 79
L 334 78
L 336 78
L 339 77
L 341 77
L 344 77
L 352 76
L 354 78
L 357 80
L 362 82
L 370 84
L 373 82
L 375 82
L 378 83
L 380 81
L 388 81
L 391 88
L 394 88
L 396 88
L 399 80
L 407 78
L 409 80
L 412 81
L 414 84
L 417 81
L 425 84
L 427 88
L 430 96
L 433 100
L 443 100
L 446 105
L 448 110
L 451 113
L 461 112
L 464 113
L 467 110
L 469 98
L 472 89
L 480 91
L 482 93
L 485 85
L 487 85
L 490 85
L 500 92
L 503 100
L 506 112
L 508 135
L 516 157
L 519 179
L 521 197
L 524 220
L 526 236
L 534 236
L 537 238
L 540 239
L 542 243
L 545 243
L 553 245
L 555 243
L 558 242
L 560 239
L 563 239
L 573 240
L 576 234
L 579 231
L 581 228
L 589 220
L 592 223
L 594 224
L 597 215
L 599 210
L 607 207
L 610 195
L 613 184
L 615 175
L 618 167
L 626 169
L 628 172
L 631 170
L 633 167
L 636 159
L 644 153
L 646 148
L 649 145
L 652 140
L 654 135
L 662 132
L 665 136
L 667 136
L 670 136
L 680 135
L 683 131
L 686 127
L 688 128
L 691 126
L 699 128
L 701 128
L 704 126
L 706 127
L 709 128
L 717 128
L 719 126
L 722 120
L 725 115
L 727 113
L 735 107
L 738 102
L 740 96
L 743 93
L 745 90
L 753 89
L 756 87
L 759 86
L 761 86
L 764 88
L 772 90
L 774 95
L 777 93
L 779 91
L 782 91
L 790 90
L 792 91
L 795 95
L 798 99
L 800 101
L 808 104
L 811 106
L 813 110
L 816 115
L 818 117
L 826 118
L 829 118
L 832 111
L 834 106
L 837 99
L 847 94
L 850 89
L 852 84
L 855 80
L 863 75
L 865 70
L 868 65
L 871 62
L 873 63
L 881 67
L 884 71
L 886 75
L 889 76
L 891 73
L 899 73
L 902 73
L 905 74
L 907 73
L 910 68
L 918 57
L 920 59
L 923 64
L 925 70
L 928 74
L 938 76
L 941 75
L 944 73
L 946 65
L 954 57
L 957 46
L 959 36
L 962 26
L 964 17
L 964 187
L 964 187
L 962 187
L 959 185
L 957 184
L 954 182
L 946 179
L 944 177
L 941 177
L 938 177
L 928 177
L 925 179
L 923 181
L 920 181
L 918 174
L 910 151
L 907 137
L 905 137
L 902 135
L 899 134
L 891 132
L 889 126
L 886 127
L 884 134
L 881 140
L 873 150
L 871 157
L 868 162
L 865 163
L 863 166
L 855 166
L 852 166
L 850 165
L 847 165
L 837 164
L 834 163
L 832 162
L 829 159
L 826 159
L 818 159
L 816 158
L 813 158
L 811 157
L 808 155
L 800 156
L 798 153
L 795 153
L 792 153
L 790 153
L 782 151
L 779 148
L 777 142
L 774 139
L 772 146
L 764 152
L 761 157
L 759 158
L 756 163
L 753 164
L 745 165
L 743 166
L 740 167
L 738 166
L 735 168
L 727 170
L 725 172
L 722 171
L 719 169
L 717 169
L 709 169
L 706 170
L 704 174
L 701 176
L 699 178
L 691 187
L 688 194
L 686 203
L 683 204
L 680 206
L 670 210
L 667 214
L 665 219
L 662 236
L 654 244
L 652 249
L 649 257
L 646 266
L 644 269
L 636 276
L 633 280
L 631 284
L 628 293
L 626 309
L 618 331
L 615 341
L 613 348
L 610 352
L 607 351
L 599 351
L 597 350
L 594 348
L 592 348
L 589 349
L 581 347
L 579 348
L 576 348
L 573 348
L 563 348
L 560 348
L 558 342
L 555 337
L 553 333
L 545 327
L 542 326
L 540 328
L 537 328
L 534 328
L 526 328
L 524 338
L 521 348
L 519 351
L 516 357
L 508 359
L 506 363
L 503 353
L 500 339
L 490 326
L 487 308
L 485 297
L 482 277
L 480 266
L 472 249
L 469 225
L 467 204
L 464 197
L 461 193
L 451 188
L 448 187
L 446 189
L 443 191
L 433 191
L 430 192
L 427 195
L 425 192
L 417 186
L 414 173
L 412 171
L 409 171
L 407 168
L 399 159
L 396 143
L 394 144
L 391 144
L 388 156
L 380 160
L 378 161
L 375 158
L 373 158
L 370 157
L 362 158
L 357 158
L 354 159
L 352 159
L 344 160
L 341 160
L 339 160
L 336 161
L 334 159
L 326 157
L 323 148
L 321 158
L 318 166
L 315 173
L 307 179
L 305 186
L 302 198
L 300 206
L 297 207
L 289 208
L 287 211
L 284 214
L 281 218
L 279 222
L 271 232
L 268 247
L 266 261
L 263 285
L 261 303
L 253 307
L 250 309
L 248 310
L 245 312
L 242 311
L 234 309
L 232 307
L 229 306
L 227 305
L 224 305
L 216 304
L 214 304
L 211 301
L 208 298
L 206 287
L 198 271
L 195 267
L 193 270
L 190 267
L 188 265
L 180 265
L 177 266
L 175 287
L 172 295
L 169 295
L 161 302
L 159 315
L 156 325
L 154 330
L 143 333
L 141 327
L 138 323
L 135 317
L 133 303
L 125 297
L 122 292
L 120 287
L 117 271
L 115 227
L 107 173
L 104 138
L 102 122
L 99 121
L 96 126
L 88 128
L 86 128
L 83 128
L 81 128
L 78 129
Z" style="stroke-width:1;stroke:rgba(239,239,239,1.0);fill:rgba(239,239,239,0.3)"/><path  d="M 15 79
L 23 78
L 26 85
L 29 89
L 31 99
L 34 119
L 42 130
L 44 107
L 47 94
L 49 94
L 52 96
L 60 103
L 62 107
L 65 100
L 68 116
L 70 120
L 78 96
L 81 113
L 83 111
L 86 113
L 88 106
L 96 96
L 99 101
L 102 116
L 104 156
L 107 211
L 115 287
L 117 307
L 120 242
L 122 198
L 125 198
L 133 213
L 135 266
L 138 233
L 141 232
L 143 259
L 154 215
L 156 239
L 159 229
L 161 221
L 169 228
L 172 206
L 175 190
L 177 194
L 180 233
L 188 224
L 190 247
L 193 249
L 195 256
L 198 256
L 206 300
L 208 299
L 211 267
L 214 263
L 216 237
L 224 205
L 227 212
L 229 197
L 232 181
L 234 179
L 242 178
L 245 189
L 248 198
L 250 170
L 253 162
L 261 161
L 263 163
L 266 175
L 268 144
L 271 124
L 279 128
L 281 132
L 284 111
L 287 112
L 289 120
L 297 97
L 300 92
L 302 98
L 305 100
L 307 101
L 315 118
L 318 114
L 321 121
L 323 148
L 326 169
L 334 141
L 336 142
L 339 112
L 341 114
L 344 107
L 352 109
L 354 107
L 357 107
L 362 105
L 370 113
L 373 95
L 375 114
L 378 141
L 380 104
L 388 116
L 391 129
L 394 143
L 396 138
L 399 174
L 407 165
L 409 146
L 412 119
L 414 148
L 417 191
L 425 176
L 427 160
L 430 137
L 433 140
L 443 144
L 446 125
L 448 138
L 451 156
L 461 182
L 464 179
L 467 202
L 469 245
L 472 265
L 480 263
L 482 249
L 485 293
L 487 265
L 490 302
L 500 300
L 503 321
L 506 312
L 508 277
L 516 303
L 519 280
L 521 299
L 524 290
L 526 248
L 534 249
L 537 281
L 540 270
L 542 268
L 545 301
L 553 323
L 555 323
L 558 325
L 560 347
L 563 312
L 573 284
L 576 256
L 579 263
L 581 264
L 589 239
L 592 261
L 594 253
L 597 232
L 599 236
L 607 250
L 610 209
L 613 201
L 615 193
L 618 188
L 626 186
L 628 206
L 631 197
L 633 196
L 636 167
L 644 169
L 646 172
L 649 161
L 652 150
L 654 152
L 662 149
L 665 150
L 667 162
L 670 163
L 680 162
L 683 145
L 686 137
L 688 142
L 691 129
L 699 135
L 701 154
L 704 133
L 706 156
L 709 151
L 717 155
L 719 138
L 722 119
L 725 119
L 727 121
L 735 108
L 738 102
L 740 100
L 743 110
L 745 110
L 753 114
L 756 111
L 759 107
L 761 124
L 764 134
L 772 119
L 774 136
L 777 146
L 779 147
L 782 140
L 790 138
L 792 115
L 795 133
L 798 132
L 800 148
L 808 130
L 811 148
L 813 147
L 816 153
L 818 142
L 826 144
L 829 120
L 832 108
L 834 107
L 837 99
L 847 102
L 850 99
L 852 93
L 855 98
L 863 89
L 865 86
L 868 80
L 871 82
L 873 100
L 881 115
L 884 119
L 886 121
L 889 116
L 891 132
L 899 120
L 902 115
L 905 118
L 907 94
L 910 162
L 918 195
L 920 163
L 923 131
L 925 106
L 928 102
L 938 115
L 941 104
L 944 105
L 946 77
L 954 70
L 957 56
L 959 56
L 962 46
L 964 48" style="stroke-width:1;stroke:rgba(0,116,217,1.0);fill:none"/><path stroke-dasharray="5.0, 5.0" d="M 15 79
L 23 78
L 26 80
L 29 82
L 31 86
L 34 91
L 42 97
L 44 98
L 47 98
L 49 97
L 52 97
L 60 98
L 62 98
L 65 99
L 68 100
L 70 101
L 78 101
L 81 103
L 83 105
L 86 106
L 88 107
L 96 107
L 99 106
L 102 105
L 104 108
L 107 115
L 115 126
L 117 139
L 120 147
L 122 152
L 125 158
L 133 164
L 135 172
L 138 180
L 141 187
L 143 196
L 154 202
L 156 210
L 159 218
L 161 225
L 169 231
L 172 234
L 175 233
L 177 227
L 180 223
L 188 222
L 190 225
L 193 228
L 195 230
L 198 230
L 206 234
L 208 238
L 211 238
L 214 241
L 216 241
L 224 240
L 227 239
L 229 237
L 232 236
L 234 235
L 242 234
L 245 232
L 248 230
L 250 226
L 253 220
L 261 215
L 263 209
L 266 202
L 268 193
L 271 185
L 279 177
L 281 170
L 284 165
L 287 159
L 289 154
L 297 150
L 300 144
L 302 140
L 305 134
L 307 129
L 315 126
L 318 123
L 321 121
L 323 120
L 326 119
L 334 119
L 336 120
L 339 119
L 341 118
L 344 118
L 352 118
L 354 117
L 357 118
L 362 118
L 370 119
L 373 119
L 375 120
L 378 121
L 380 121
L 388 120
L 391 119
L 394 118
L 396 118
L 399 119
L 407 123
L 409 124
L 412 125
L 414 127
L 417 132
L 425 136
L 427 140
L 430 141
L 433 144
L 443 145
L 446 144
L 448 146
L 451 149
L 461 152
L 464 154
L 467 158
L 469 162
L 472 168
L 480 175
L 482 182
L 485 191
L 487 195
L 490 203
L 500 211
L 503 222
L 506 232
L 508 240
L 516 250
L 519 259
L 521 267
L 524 273
L 526 277
L 534 280
L 537 282
L 540 282
L 542 283
L 545 286
L 553 288
L 555 291
L 558 292
L 560 295
L 563 295
L 573 293
L 576 292
L 579 289
L 581 288
L 589 285
L 592 283
L 594 283
L 597 282
L 599 280
L 607 279
L 610 275
L 613 269
L 615 262
L 618 254
L 626 245
L 628 237
L 631 230
L 633 225
L 636 220
L 644 214
L 646 209
L 649 204
L 652 198
L 654 192
L 662 187
L 665 182
L 667 177
L 670 174
L 680 172
L 683 169
L 686 166
L 688 164
L 691 159
L 699 155
L 701 153
L 704 151
L 706 150
L 709 149
L 717 149
L 719 148
L 722 146
L 725 144
L 727 142
L 735 139
L 738 136
L 740 132
L 743 130
L 745 128
L 753 127
L 756 126
L 759 124
L 761 122
L 764 122
L 772 120
L 774 119
L 777 119
L 779 119
L 782 120
L 790 122
L 792 121
L 795 123
L 798 124
L 800 127
L 808 128
L 811 131
L 813 133
L 816 135
L 818 137
L 826 138
L 829 138
L 832 137
L 834 135
L 837 132
L 847 130
L 850 127
L 852 125
L 855 124
L 863 121
L 865 118
L 868 114
L 871 112
L 873 109
L 881 107
L 884 105
L 886 104
L 889 102
L 891 103
L 899 103
L 902 104
L 905 105
L 907 105
L 910 108
L 918 114
L 920 118
L 923 121
L 925 122
L 928 123
L 938 125
L 941 125
L 944 125
L 946 122
L 954 119
L 957 116
L 959 111
L 962 107
L 964 103" style="stroke-width:1;stroke:rgba(255,0,0,1.0);fill:none"/></svg>